<?xml version="1.0" encoding="utf-8"?>
<!-- Generator: Adobe Illustrator 21.0.0, SVG Export Plug-In . SVG Version: 6.00 Build 0)  -->
<svg version="1.1" id="Layer_1" xmlns="http://www.w3.org/2000/svg" xmlns:xlink="http://www.w3.org/1999/xlink" x="0px" y="0px"
	 viewBox="0 0 512 338" style="enable-background:new 0 0 512 338;" xml:space="preserve">
<style type="text/css">
	.st0{fill:#FFFDFD;}
</style>
<path class="st0" d="M418.4,143.1c0-1.4,0.2-2.7,0.2-4.1c0-74.3-59.2-134.4-132.2-134.4c-52.7,0-97.9,31.3-119.2,76.6
	c-9.3-4.7-19.7-7.4-30.6-7.4c-33.7,0-61.8,25-67.2,57.7C28.9,145.3,0,184.1,0,229.7c0,57.4,45.8,104,102.3,104h117.1v-91.4h-55.1
	l91.7-95.7l91.7,95.5h-55.1v91.4h126.1c51.7,0,93.4-42.9,93.4-95.3S470.1,143.2,418.4,143.1z"/>
</svg>
